#Comment line ignore any data following # character 
#Hierarchical Translation and Rotation (.htr) file 
[Header]	
#Header keywords are followed by a single value 
FileType HTR		#Single word string
DataType HTRS		#Translation followed by rotation and scale data
FileVersion 1		#integer
NumSegments 23		#integer
NumFrames 6		#integer
DataFrameRate 30		#integer, data frame rate in this file
EulerRotationOrder ZYX
CalibrationUnits mm
RotationUnits Degrees
GlobalAxisofGravity Y
BoneLengthAxis Y
ScaleFactor 1.00
[SegmentNames&Hierarchy]
#CHILD	PARENT
MASTER GLOBAL
weapon MASTER
arm_lock_bottom_part1 weapon
arm_lock_bottom_part2 weapon
arm_lock_bottom_part3 weapon
arm_lock_bottom_part4 weapon
arm_lock_top_part1 weapon
arm_lock_top_part2 weapon
arm_lock_top_part3 weapon
front_lower_left_part1 weapon
front_lower_right_part1 weapon
front_top_left_part weapon
front_top_right_part1 weapon
scope_part1 weapon
scope_part2 weapon
front_lower_left_part2 front_lower_left_part1
front_lower_left_part3 front_lower_left_part2
front_lower_right_part2 front_lower_right_part1
front_lower_right_part3 front_lower_right_part2
front_top_left_part2 front_top_left_part
front_top_left_part3 front_top_left_part2
front_top_right_part2 front_top_right_part1
front_top_right_part3 front_top_right_part2
[BasePosition]
#SegmentName Tx, Ty, Tz, Rx, Ry, Rz, BoneLength
MASTER 0.000000 0.000000 0.000000 -90.000000 0.000000 0.000000 10.000000 
weapon 0.000000 0.000000 0.000000 0.000000 0.000000 0.000000 10.000000 
arm_lock_bottom_part1 0.000000 0.000000 0.000000 0.000000 0.000000 0.000000 10.000000 
arm_lock_bottom_part2 0.000000 0.000000 0.000000 0.000000 0.000000 0.000000 10.000000 
arm_lock_bottom_part3 0.000000 0.000000 0.000000 0.000000 0.000000 0.000000 10.000000 
arm_lock_bottom_part4 0.000000 0.000000 0.000000 0.000000 0.000000 0.000000 10.000000 
arm_lock_top_part1 0.000000 0.000000 0.000000 0.000000 0.000000 0.000000 10.000000 
arm_lock_top_part2 0.000000 0.000000 0.000000 0.000000 0.000000 0.000000 10.000000 
arm_lock_top_part3 0.000000 0.000000 0.000000 0.000000 0.000000 0.000000 10.000000 
front_lower_left_part1 0.000000 0.000000 0.000000 0.000000 0.000000 0.000000 10.000000 
front_lower_right_part1 0.000000 0.000000 0.000000 0.000000 0.000000 0.000000 10.000000 
front_top_left_part 0.000000 0.000000 0.000000 0.000000 0.000000 0.000000 10.000000 
front_top_right_part1 0.000000 0.000000 0.000000 0.000000 0.000000 0.000000 10.000000 
scope_part1 0.000000 0.000000 0.000000 0.000000 0.000000 0.000000 10.000000 
scope_part2 0.000000 0.000000 0.000000 0.000000 0.000000 0.000000 10.000000 
front_lower_left_part2 0.000000 0.000000 0.000000 0.000000 0.000000 0.000000 10.000000 
front_lower_left_part3 0.000000 0.000000 0.000000 0.000000 0.000000 0.000000 10.000000 
front_lower_right_part2 0.000000 0.000000 0.000000 0.000000 0.000000 0.000000 10.000000 
front_lower_right_part3 0.000000 0.000000 0.000000 0.000000 0.000000 0.000000 10.000000 
front_top_left_part2 0.000000 0.000000 0.000000 0.000000 0.000000 0.000000 10.000000 
front_top_left_part3 0.000000 0.000000 0.000000 0.000000 0.000000 0.000000 10.000000 
front_top_right_part2 0.000000 0.000000 0.000000 0.000000 0.000000 0.000000 10.000000 
front_top_right_part3 0.000000 0.000000 0.000000 0.000000 0.000000 0.000000 10.000000 
#Beginning of Data. Separated by tabs
#Fr	Tx	Ty	Tz	Rx	Ry	Rz	SF
[MASTER]
22 0.000000 -0.000019 0.000002 0.002458 -0.000000 0.000000 0.000019
23 0.000000 -0.000019 0.000002 0.002458 -0.000000 0.000000 0.000019
24 0.000000 -0.000019 0.000002 0.002458 -0.000000 0.000000 0.000019
25 0.000000 -0.000019 0.000002 0.002458 -0.000000 0.000000 0.000019
26 0.000000 -0.000019 0.000002 0.002458 -0.000000 0.000000 0.000019
27 0.000000 -0.000019 0.000002 0.002458 -0.000000 0.000000 0.000019
[weapon]
22 10.182457 -168.977844 -13.084106 -0.002473 -0.000000 -0.000020 169.789246
23 10.182457 -168.977844 -13.084106 -0.002473 -0.000000 -0.000020 169.789246
24 10.182476 -168.977844 -13.084106 -0.002473 -0.000000 -0.000020 169.789246
25 10.182457 -168.977844 -13.084106 -0.002473 -0.000000 -0.000020 169.789246
26 10.182457 -168.977844 -13.084106 -0.002473 -0.000000 -0.000020 169.789246
27 10.182457 -168.977844 -13.084106 -0.002473 -0.000000 -0.000020 169.789246
[arm_lock_bottom_part1]
22 -48.820000 98.566208 -83.498993 179.999985 0.000004 9.388626 138.096970
23 -48.820000 98.566208 -83.498993 179.999985 0.000004 9.388626 138.096970
24 -48.820000 98.566170 -83.498993 179.999985 0.000004 9.388626 138.096939
25 -48.820019 98.566170 -83.498993 179.999985 0.000004 9.388626 138.096939
26 -48.820000 98.566208 -83.498993 179.999985 0.000004 9.388626 138.096970
27 -48.820000 98.566208 -83.498993 179.999985 0.000004 9.388626 138.096970
[arm_lock_bottom_part2]
22 -49.022766 58.782005 -78.526535 -179.999985 -0.000001 6.576765 109.658440
23 -49.022766 58.782005 -78.526535 -179.999985 -0.000001 6.576765 109.658440
24 -49.022766 58.781967 -78.526535 -179.999985 -0.000001 6.576765 109.658417
25 -49.022766 58.781967 -78.526535 -179.999985 -0.000001 6.576765 109.658417
26 -49.022766 58.782005 -78.526535 -179.999985 -0.000001 6.576765 109.658440
27 -49.022766 58.782005 -78.526535 -179.999985 -0.000001 6.576765 109.658440
[arm_lock_bottom_part3]
22 -51.266422 -16.798210 -66.920395 -179.999985 -0.000001 4.326176 85.957924
23 -51.266422 -16.798210 -66.920395 -179.999985 -0.000001 4.326176 85.957924
24 -51.266422 -16.798248 -66.920395 -179.999985 -0.000001 4.326176 85.957932
25 -51.266438 -16.798248 -66.920395 -179.999985 -0.000001 4.326176 85.957939
26 -51.266422 -16.798210 -66.920395 -179.999985 -0.000001 4.326176 85.957924
27 -51.266422 -16.798210 -66.920395 -179.999985 -0.000001 4.326176 85.957924
[arm_lock_bottom_part4]
22 -40.078102 -93.503113 -59.330063 -179.999985 -0.000000 1.322129 117.767326
23 -40.078102 -93.503113 -59.330063 -179.999985 -0.000000 1.322129 117.767326
24 -40.078083 -93.503136 -59.330063 -179.999985 -0.000000 1.322129 117.767326
25 -40.078102 -93.503136 -59.330063 -179.999985 -0.000000 1.322129 117.767334
26 -40.078102 -93.503113 -59.330063 -179.999985 -0.000000 1.322129 117.767326
27 -40.078102 -93.503113 -59.330063 -179.999985 -0.000000 1.322129 117.767326
[arm_lock_top_part1]
22 -47.532558 61.554489 78.379364 0.000000 -0.000000 -9.999999 110.415680
23 -47.532558 61.554489 78.379364 0.000000 -0.000000 -9.999999 110.415680
24 -47.532558 61.554451 78.379364 0.000000 -0.000000 -9.999999 110.415672
25 -47.532539 61.554451 78.379364 0.000000 -0.000000 -9.999999 110.415665
26 -47.532558 61.554489 78.379364 0.000000 -0.000000 -9.999999 110.415680
27 -47.532558 61.554489 78.379364 0.000000 -0.000000 -9.999999 110.415680
[arm_lock_top_part2]
22 -45.622673 13.709908 63.393555 0.000000 -0.000000 -7.722126 79.297745
23 -45.622673 13.709908 63.393555 0.000000 -0.000000 -7.722126 79.297745
24 -45.622673 13.709869 63.393555 0.000000 -0.000000 -7.722126 79.297745
25 -45.622692 13.709869 63.393555 0.000000 -0.000000 -7.722126 79.297752
26 -45.622673 13.709908 63.393555 0.000000 -0.000000 -7.722126 79.297745
27 -45.622673 13.709908 63.393555 0.000000 -0.000000 -7.722126 79.297745
[arm_lock_top_part3]
22 -43.788544 -73.747208 72.061615 0.000000 0.000000 -4.533067 112.022163
23 -43.788544 -73.747208 72.061615 0.000000 0.000000 -4.533067 112.022163
24 -43.788525 -73.747253 72.061615 0.000000 0.000000 -4.533067 112.022179
25 -43.788567 -73.747253 72.061615 0.000000 0.000000 -4.533067 112.022194
26 -43.788544 -73.747208 72.061615 0.000000 0.000000 -4.533067 112.022163
27 -43.788544 -73.747208 72.061615 0.000000 0.000000 -4.533067 112.022163
[front_lower_left_part1]
22 -46.798553 475.070984 -43.538895 0.000000 0.000003 -0.000000 479.351837
23 -46.798553 475.070984 -43.538895 0.000000 0.000003 -0.000000 479.351837
24 -46.798553 475.070953 -43.538895 0.000000 0.000003 -0.000000 479.351807
25 -46.798553 475.070862 -43.538895 0.000000 0.000003 -0.000000 479.351715
26 -46.798553 475.070984 -43.538895 0.000000 0.000003 -0.000000 479.351837
27 -46.798553 475.070984 -43.538895 0.000000 0.000003 -0.000000 479.351837
[front_lower_right_part1]
22 26.433468 475.070984 -43.538742 0.000000 -0.000000 -0.000000 477.793671
23 26.433468 475.070984 -43.538742 0.000000 -0.000000 -0.000000 477.793671
24 26.433447 475.070953 -43.538895 0.000000 -0.000000 -0.000000 477.793640
25 26.433447 475.070953 -43.538895 0.000000 -0.000000 -0.000000 477.793640
26 26.433468 475.070984 -43.538742 0.000000 -0.000000 -0.000000 477.793671
27 26.433468 475.070984 -43.538742 0.000000 -0.000000 -0.000000 477.793671
[front_top_left_part]
22 -47.897224 494.788910 7.030945 -0.000000 0.000003 -0.000001 497.151520
23 -47.897224 494.788910 7.030945 -0.000000 0.000003 -0.000001 497.151520
24 -47.897224 494.788879 7.030945 -0.000000 0.000003 -0.000001 497.151489
25 -47.897205 494.788879 7.030945 -0.000000 0.000003 -0.000001 497.151489
26 -47.897224 494.788910 7.030945 -0.000000 0.000003 -0.000001 497.151520
27 -47.897224 494.788910 7.030945 -0.000000 0.000003 -0.000001 497.151520
[front_top_right_part1]
22 27.532139 494.788910 7.031097 0.000000 -0.000000 -0.000000 495.604218
23 27.532139 494.788910 7.031097 0.000000 -0.000000 -0.000000 495.604218
24 27.532156 494.788879 7.031097 0.000000 -0.000000 -0.000000 495.604187
25 27.532120 494.788879 7.031097 0.000000 -0.000000 -0.000000 495.604187
26 27.532139 494.788910 7.031097 0.000000 -0.000000 -0.000000 495.604218
27 27.532139 494.788910 7.031097 0.000000 -0.000000 -0.000000 495.604218
[scope_part1]
22 -10.754299 87.338936 156.453094 -4.905091 -0.933000 0.080162 179.502960
23 -10.754299 87.338936 156.453094 -4.905199 -0.992961 0.085206 179.502960
24 -10.754318 87.338905 156.453094 -4.905313 -1.051373 0.090342 179.502960
25 -10.754318 87.338905 156.453094 -4.905386 -1.106707 0.095031 179.502960
26 -10.754299 87.338936 156.453094 -4.905465 -1.162041 0.099720 179.502960
27 -10.754299 87.338936 156.453094 -4.905580 -1.213519 0.104251 179.502960
[scope_part2]
22 -10.754299 82.597351 156.859894 -4.904979 0.867114 -0.074440 177.603500
23 -10.754299 82.597351 156.859894 -4.905072 0.922836 -0.079152 177.603500
24 -10.754280 82.597305 156.859894 -4.905168 0.977092 -0.083795 177.603470
25 -10.754280 82.597351 156.859894 -4.905268 1.029566 -0.088368 177.603500
26 -10.754299 82.597351 156.859894 -4.905293 1.079891 -0.092685 177.603500
27 -10.754299 82.597351 156.859894 -4.905390 1.127752 -0.096753 177.603500
[front_lower_left_part2]
22 -55.193516 141.618484 32.268444 0.000000 -0.000000 1.075504 155.381378
23 -55.193516 141.618484 32.268444 0.000000 -0.000000 1.161596 155.381378
24 -55.193501 141.618484 32.268444 0.000000 -0.000000 1.249075 155.381378
25 -55.193516 141.618484 32.268444 0.000000 -0.000000 1.337791 155.381378
26 -55.193516 141.618484 32.268444 0.000000 -0.000000 1.427437 155.381378
27 -55.193516 141.618484 32.268444 0.000000 -0.000000 1.517699 155.381378
[front_lower_left_part3]
22 -10.943755 108.509445 -11.124877 33.655060 -15.305503 -14.591867 109.625854
23 -10.943755 108.509445 -11.124877 33.677406 -15.251079 -14.676603 109.625854
24 -10.943793 108.509445 -11.124877 33.699696 -15.196392 -14.761559 109.625854
25 -10.943775 108.509521 -11.124725 33.722015 -15.141501 -14.846777 109.625916
26 -10.943755 108.509445 -11.124725 33.744190 -15.086720 -14.931827 109.625839
27 -10.943755 108.509590 -11.124877 33.766048 -15.032427 -15.015910 109.625999
[front_lower_right_part2]
22 55.193707 141.618347 32.268291 0.000000 0.000000 -0.511740 155.381271
23 55.193707 141.618347 32.268291 0.000000 0.000000 -0.552694 155.381271
24 55.193707 141.618347 32.268291 0.000000 0.000000 -0.594270 155.381271
25 55.193707 141.618347 32.268291 0.000000 0.000000 -0.636461 155.381271
26 55.193707 141.618347 32.268291 0.000000 0.000000 -0.679116 155.381271
27 55.193707 141.618347 32.268291 0.000000 0.000000 -0.722086 155.381271
[front_lower_right_part3]
22 10.943947 108.509369 -11.124725 33.522171 15.624598 14.093263 109.625786
23 10.943870 108.509369 -11.124725 33.534348 15.595612 14.138625 109.625778
24 10.943909 108.509521 -11.124877 33.546524 15.566691 14.184011 109.625938
25 10.943870 108.509369 -11.124877 33.558552 15.537988 14.228937 109.625786
26 10.943909 108.509369 -11.124725 33.570446 15.509486 14.273418 109.625778
27 10.943909 108.509445 -11.124877 33.582123 15.481525 14.317206 109.625870
[front_top_left_part2]
22 -40.716282 137.491837 54.737549 0.000000 -0.000003 0.000001 153.486221
23 -40.579357 137.492142 54.729919 0.000000 -0.000003 0.000001 153.447510
24 -40.442181 137.492447 54.722443 0.000000 -0.000003 0.000001 153.408905
25 -40.305195 137.492752 54.715115 0.000000 -0.000003 0.000001 153.370499
26 -40.169106 137.493057 54.707485 0.000000 -0.000003 0.000001 153.332352
27 -40.034332 137.493286 54.700008 0.000000 -0.000003 0.000001 153.294632
[front_top_left_part3]
22 -28.216457 149.656982 49.959717 -25.912415 -3.406248 -65.509148 160.278992
23 -28.216438 149.656982 49.959717 -25.916302 -3.374479 -65.443596 160.278976
24 -28.216438 149.656906 49.959717 -25.920044 -3.343477 -65.379593 160.278915
25 -28.216438 149.656906 49.959564 -25.923647 -3.313523 -65.317863 160.278870
26 -28.216457 149.657059 49.959717 -25.927069 -3.284723 -65.258560 160.279053
27 -28.216457 149.657059 49.959717 -25.930269 -3.257395 -65.202339 160.279053
[front_top_right_part2]
22 40.588989 137.483826 54.948116 0.000000 0.000000 -0.000020 153.520554
23 40.442657 137.483521 54.956203 0.000000 0.000000 -0.000020 153.484558
24 40.296017 137.483139 54.964142 0.000000 0.000000 -0.000020 153.448486
25 40.149689 137.482834 54.972229 0.000000 0.000000 -0.000020 153.412766
26 40.004234 137.482529 54.980164 0.000000 0.000000 -0.000020 153.377319
27 39.860229 137.482224 54.988098 0.000000 0.000000 -0.000020 153.342407
[front_top_right_part3]
22 28.216515 149.657135 49.959564 -25.886684 3.610587 65.930611 160.279083
23 28.216553 149.657135 49.959717 -25.889105 3.591943 65.892082 160.279144
24 28.216515 149.657135 49.959717 -25.891434 3.573772 65.854591 160.279129
25 28.216476 149.657135 49.959564 -25.893717 3.556173 65.818321 160.279083
26 28.216515 149.657135 49.959717 -25.895870 3.539340 65.783577 160.279129
27 28.216515 149.657135 49.959717 -25.897896 3.523276 65.750374 160.279129
